<?xml version="1.0" encoding="iso-8859-1"?>
<!-- Generator: Adobe Illustrator 19.0.0, SVG Export Plug-In . SVG Version: 6.00 Build 0)  -->
<svg version="1.1" id="Capa_1" xmlns="http://www.w3.org/2000/svg" xmlns:xlink="http://www.w3.org/1999/xlink" x="0px" y="0px"
	 viewBox="0 0 512 512" style="enable-background:new 0 0 512 512;" xml:space="preserve">
<path style="fill:#695A6E;" d="M367.545,512c12.729,0,23.047-10.318,23.047-23.047V291.972c0-12.728-10.318-23.047-23.047-23.047
	s-23.047,10.318-23.047,23.047v196.981C344.498,501.682,354.816,512,367.545,512z"/>
<path style="fill:#50374B;" d="M423.18,512c12.729,0,23.047-10.318,23.047-23.047V291.972c0-12.728-10.318-23.047-23.047-23.047
	s-23.047,10.318-23.047,23.047v196.981C400.134,501.682,410.452,512,423.18,512z"/>
<path style="fill:#BA6746;" d="M249.654,1.086c10.008-3.508,20.969,1.761,24.478,11.771l26.684,76.124l59.436,31.703
	c16.94,0,65.276,0,86.87,0c25.326,0,46.033,20.287,46.159,45.319V307.1c0,10.607-8.599,19.206-19.206,19.206
	s-19.206-8.599-19.206-19.206l0.001-141c-0.019-3.666-3.711-7.003-7.748-7.003h-0.895v145.642H344.498V155.815l-68.368-36.467
	c-4.25-2.267-7.493-6.047-9.086-10.593l-29.161-83.192C234.374,15.554,239.644,4.595,249.654,1.086z"/>
<path style="fill:#FF3C3C;" d="M318.307,98.311l41.944,22.373h14.562c-0.42,10.822,9.63,20.02,20.122,20.02
	c11.245,0,19.576-9.163,20.111-20.02h32.075c25.326,0,46.033,20.287,46.159,45.319v41.371h-38.411V166.1
	c-0.019-3.666-3.711-7.003-7.748-7.003h-0.895v145.642H344.498V155.815l-45.261-24.142L318.307,98.311z"/>
<circle style="fill:#BA6746;" cx="395.36" cy="68.19" r="39.804"/>
<path style="fill:#343E6B;" d="M144.455,512c-12.729,0-23.047-10.318-23.047-23.047V291.972c0-12.728,10.318-23.047,23.047-23.047
	s23.047,10.318,23.047,23.047v196.981C167.502,501.682,157.184,512,144.455,512z"/>
<path style="fill:#414B82;" d="M88.82,512c-12.729,0-23.047-10.318-23.047-23.047V291.972c0-12.728,10.318-23.047,23.047-23.047
	s23.047,10.318,23.047,23.047v196.981C111.866,501.682,101.548,512,88.82,512z"/>
<path style="fill:#FFB69E;" d="M262.346,1.086c-10.008-3.508-20.969,1.761-24.478,11.771l-26.684,76.124l-59.436,31.703
	c-16.94,0-65.276,0-86.87,0c-25.326,0-46.033,20.287-46.159,45.319V307.1c0,10.607,8.599,19.206,19.206,19.206
	s19.206-8.599,19.206-19.206l-0.001-141c0.019-3.666,3.711-7.003,7.748-7.003h0.895v145.642h101.729V155.815l68.368-36.467
	c4.25-2.267,7.493-6.047,9.086-10.593l29.161-83.192C277.626,15.554,272.356,4.595,262.346,1.086z"/>
<path style="fill:#64AFFF;" d="M193.693,98.311l-41.944,22.373h-14.562c0.42,10.822-9.63,20.02-20.122,20.02
	c-11.245,0-19.576-9.163-20.111-20.02H64.878c-25.326,0-46.033,20.287-46.159,45.319v41.371H57.13V166.1
	c0.019-3.666,3.711-7.003,7.748-7.003h0.895v145.642h101.729V155.815l45.261-24.142L193.693,98.311z"/>
<circle style="fill:#FFB69E;" cx="116.64" cy="68.19" r="39.804"/>
<g>
</g>
<g>
</g>
<g>
</g>
<g>
</g>
<g>
</g>
<g>
</g>
<g>
</g>
<g>
</g>
<g>
</g>
<g>
</g>
<g>
</g>
<g>
</g>
<g>
</g>
<g>
</g>
<g>
</g>
</svg>
